<svg width="185" height="93" viewBox="0 0 185 93" fill="none" xmlns="http://www.w3.org/2000/svg">
<path d="M170.189 0C170.08 0.718129 170.023 1.45354 170.023 2.20215C170.023 10.23 176.532 16.7383 184.56 16.7383C184.707 16.7383 184.854 16.7348 185 16.7305V19.4248C183.995 19.6288 183.238 20.5176 183.238 21.583C183.238 22.6485 183.995 23.5371 185 23.7412V26.4727C183.995 26.6767 183.238 27.5654 183.238 28.6309C183.238 29.6963 183.995 30.585 185 30.7891V32.6387C183.995 32.8427 183.238 33.7323 183.238 34.7979C183.238 35.8632 183.995 36.751 185 36.9551V40.5674C183.995 40.7714 183.238 41.661 183.238 42.7266C183.238 43.7918 183.995 44.6797 185 44.8838V47.6152C183.995 47.8193 183.238 48.7081 183.238 49.7734C183.238 50.8389 183.995 51.7275 185 51.9316V54.6631C183.995 54.8671 183.238 55.7559 183.238 56.8213C183.238 57.8868 183.995 58.7754 185 58.9795V61.71C183.995 61.914 183.238 62.8036 183.238 63.8691C183.238 64.9345 183.995 65.8222 185 66.0264V68.7578C183.995 68.9618 183.238 69.8515 183.238 70.917C183.238 71.9823 183.995 72.8701 185 73.0742V75.7686C184.854 75.7642 184.707 75.7617 184.56 75.7617C176.532 75.7617 170.023 82.27 170.023 90.2979C170.023 91.0465 170.08 91.7819 170.189 92.5H16.6777C16.717 92.0648 16.7383 91.6241 16.7383 91.1787C16.7383 83.1509 10.23 76.6426 2.20215 76.6426C1.45353 76.6426 0.718133 76.6994 0 76.8086V73.9551C0.14236 73.984 0.289538 74 0.44043 74C1.65669 74 2.64245 73.0141 2.64258 71.7979C2.64258 70.5815 1.65677 69.5957 0.44043 69.5957C0.289641 69.5957 0.14227 69.6098 0 69.6387V66.9072C0.142374 66.9361 0.289522 66.9521 0.44043 66.9521C1.65677 66.9521 2.64258 65.9663 2.64258 64.75C2.64258 63.5337 1.65677 62.5479 0.44043 62.5479C0.289589 62.5479 0.142315 62.5629 0 62.5918V59.8604C0.142329 59.8892 0.289573 59.9043 0.44043 59.9043C1.65677 59.9043 2.64258 58.9185 2.64258 57.7021C2.64245 56.4859 1.65669 55.5 0.44043 55.5C0.289605 55.5 0.142301 55.5151 0 55.5439V52.8125C0.142343 52.8414 0.289557 52.8574 0.44043 52.8574C1.65677 52.8574 2.64258 51.8706 2.64258 50.6543C2.64233 49.4382 1.65662 48.4521 0.44043 48.4521C0.289621 48.4522 0.142287 48.4672 0 48.4961V45.7646C0.142357 45.7936 0.289541 45.8096 0.44043 45.8096C1.65668 45.8096 2.64243 44.8236 2.64258 43.6074C2.64258 42.3911 1.65677 41.4043 0.44043 41.4043C0.289638 41.4043 0.142273 41.4194 0 41.4482V37.8359C0.142365 37.8648 0.289532 37.8809 0.44043 37.8809C1.65672 37.8809 2.6425 36.895 2.64258 35.6787C2.64258 34.4624 1.65677 33.4766 0.44043 33.4766C0.289647 33.4766 0.142265 33.4907 0 33.5195V31.6699C0.142326 31.6988 0.289577 31.7139 0.44043 31.7139C1.65677 31.7139 2.64258 30.7281 2.64258 29.5117C2.64248 28.2955 1.65671 27.3096 0.44043 27.3096C0.289602 27.3096 0.142304 27.3246 0 27.3535V24.6221C0.14234 24.651 0.289561 24.667 0.44043 24.667C1.65677 24.667 2.64258 23.6802 2.64258 22.4639C2.64235 21.2477 1.65663 20.2617 0.44043 20.2617C0.289618 20.2617 0.14229 20.2768 0 20.3057V16.5713C0.718184 16.6805 1.45348 16.7383 2.20215 16.7383C10.23 16.7383 16.7383 10.23 16.7383 2.20215C16.7383 1.45353 16.6814 0.718138 16.5723 0H170.189Z" fill="black"/>
<rect x="19.3811" y="11.4525" width="144.476" height="70.4762" rx="16" fill="#FAAA47"/>
<line x1="41.5239" y1="11.4525" x2="41.5239" y2="81.9287" stroke="black" stroke-width="2"/>
<line x1="143.714" y1="11.4525" x2="143.714" y2="81.9287" stroke="black" stroke-width="2"/>
<rect x="30.0002" y="31.0004" width="126.619" height="27.0714" rx="7" fill="#E8D2AB" stroke="black" stroke-width="2"/>
<path d="M25.3937 29.9525L26.8252 23.7639L22.024 19.6014L28.3669 19.0508L30.8336 13.2144L33.3002 19.0508L39.6431 19.6014L34.8419 23.7639L36.2735 29.9525L30.8336 26.671L25.3937 29.9525Z" fill="black"/>
<g clip-path="url(#clip0_17_53)">
<path d="M24.5127 76.643L25.9443 70.4543L21.1431 66.2918L27.4859 65.7412L29.9526 59.9049L32.4193 65.7412L38.7621 66.2918L33.9609 70.4543L35.3925 76.643L29.9526 73.3615L24.5127 76.643Z" fill="black"/>
</g>
<path d="M148.727 29.0716L150.158 22.8829L145.357 18.7204L151.7 18.1698L154.167 12.3335L156.633 18.1698L162.976 18.7204L158.175 22.8829L159.607 29.0716L154.167 25.79L148.727 29.0716Z" fill="black"/>
<g clip-path="url(#clip1_17_53)">
<path d="M149.301 78.2621L150.926 71.2371L145.476 66.5121L152.676 65.8871L155.476 59.2621L158.276 65.8871L165.476 66.5121L160.026 71.2371L161.651 78.2621L155.476 74.5371L149.301 78.2621Z" fill="black"/>
</g>
<path d="M59.896 49.168C58.384 49.168 57.216 48.784 56.392 48.016C55.576 47.248 55.168 46.02 55.168 44.332C55.168 41.108 56.736 39.496 59.872 39.496C60.632 39.496 61.336 39.588 61.984 39.772C62.64 39.956 63.128 40.16 63.448 40.384V43.384H60.568V42.52C60.568 42.216 60.5 41.992 60.364 41.848C60.228 41.704 60.024 41.632 59.752 41.632C59.48 41.632 59.276 41.704 59.14 41.848C59.004 41.992 58.936 42.216 58.936 42.52V46.144C58.936 46.448 59.004 46.672 59.14 46.816C59.276 46.96 59.48 47.032 59.752 47.032C60.024 47.032 60.228 46.96 60.364 46.816C60.5 46.672 60.568 46.448 60.568 46.144V45.172H63.448V48.28C63.12 48.504 62.632 48.708 61.984 48.892C61.344 49.076 60.648 49.168 59.896 49.168ZM63.9002 49V47.032H64.5002V41.632H63.9002V39.664H68.4602V41.632H67.8602V47.032H68.4602V49H63.9002ZM75.8512 39.664H79.7872V41.632H79.1872V49H75.8152L72.2992 43.588V47.032H72.8752V49H68.9392V47.032H69.5392V41.632H68.9392V39.664H73.2712L76.4272 44.476V41.632H75.8512V39.664ZM80.2478 49V47.032H80.8478V41.632H80.2478V39.664H88.3478V43.288H85.6598V41.632H84.2078V43.528H85.2638V44.896H84.2078V47.032H85.6598V45.136H88.3478V49H80.2478ZM102 41.632H101.4V47.032H102V49H97.4642V47.032H98.0402V45.052H96.3602V47.032H96.9362V49H92.4002V47.032H93.0002V41.632H92.4002V39.664H96.9362V41.632H96.3602V43.456H98.0402V41.632H97.4642V39.664H102V41.632ZM111.286 47.032H111.766V49H107.062V47.032H107.782L107.59 46.072H105.958L105.766 47.032H106.486V49H102.382V47.032H102.862L104.89 39.664H109.258L111.286 47.032ZM106.222 44.8H107.326L106.834 42.412H106.714L106.222 44.8ZM112.146 49V47.032H112.746V41.632H112.146V39.664H117.21V41.632H116.106V47.032H117.186V45.928H119.574V49H112.146ZM119.986 49V47.032H120.586V41.632H119.986V39.664H125.05V41.632H123.946V47.032H125.026V45.928H127.414V49H119.986Z" fill="#462E0A"/>
<defs>
<clipPath id="clip0_17_53">
<rect width="21.1429" height="21.1429" fill="white" transform="translate(19.3811 59.024)"/>
</clipPath>
<clipPath id="clip1_17_53">
<rect width="21.1429" height="21.1429" fill="white" transform="translate(144.476 57.2621)"/>
</clipPath>
</defs>
</svg>
