<svg width="179" height="90" viewBox="0 0 179 90" fill="none" xmlns="http://www.w3.org/2000/svg">
<path d="M164.057 0C163.951 0.692331 163.897 1.40133 163.897 2.12305C163.897 9.86161 170.171 16.1348 177.909 16.1348C178.051 16.1348 178.192 16.1321 178.333 16.1279V18.7246C177.364 18.9214 176.635 19.7786 176.635 20.8057C176.635 21.8327 177.364 22.6889 178.333 22.8857V25.5186C177.364 25.7153 176.635 26.5726 176.635 27.5996C176.635 28.6264 177.364 29.4819 178.333 29.6787V31.4629C177.364 31.6597 176.635 32.5169 176.635 33.5439C176.635 34.5709 177.364 35.4272 178.333 35.624V39.1055C177.364 39.3022 176.635 40.1595 176.635 41.1865C176.635 42.2135 177.364 43.0698 178.333 43.2666V45.8994C177.364 46.0962 176.635 46.9534 176.635 47.9805C176.635 49.0074 177.364 49.8638 178.333 50.0605V52.6934C177.364 52.8901 176.635 53.7466 176.635 54.7734C176.635 55.8004 177.364 56.6567 178.333 56.8535V59.4863C177.364 59.6831 176.635 60.5403 176.635 61.5674C176.635 62.5944 177.364 63.4506 178.333 63.6475V66.2803C177.364 66.477 176.635 67.3343 176.635 68.3613C176.635 69.3883 177.364 70.2446 178.333 70.4414V73.0381C178.192 73.0339 178.051 73.0322 177.909 73.0322C170.171 73.0322 163.897 79.3054 163.897 87.0439C163.897 87.7657 163.951 88.4747 164.057 89.167H16.0762C16.114 88.7473 16.1348 88.3221 16.1348 87.8926C16.1346 80.1542 9.86149 73.8809 2.12305 73.8809C1.40137 73.8809 0.692295 73.9348 0 74.04V71.29C0.137257 71.3179 0.27932 71.333 0.424805 71.333C1.59724 71.3329 2.54785 70.3824 2.54785 69.21C2.54763 68.0377 1.5971 67.087 0.424805 67.0869C0.279377 67.0869 0.137208 67.102 0 67.1299V64.4971C0.137218 64.5249 0.279365 64.54 0.424805 64.54C1.59716 64.5399 2.54772 63.5893 2.54785 62.417C2.54785 61.2445 1.59724 60.294 0.424805 60.2939C0.279399 60.2939 0.137188 60.3081 0 60.3359V57.7031C0.137237 57.731 0.279343 57.7461 0.424805 57.7461C1.59724 57.746 2.54785 56.7955 2.54785 55.623C2.54781 54.4506 1.59721 53.5001 0.424805 53.5C0.27942 53.5 0.137169 53.5142 0 53.542V50.9092C0.137256 50.9371 0.279321 50.9521 0.424805 50.9521C1.59724 50.9521 2.54785 50.0016 2.54785 48.8291C2.54764 47.6568 1.59711 46.7061 0.424805 46.7061C0.279375 46.7061 0.137209 46.7212 0 46.749V44.1162C0.137216 44.1441 0.279367 44.1592 0.424805 44.1592C1.59715 44.1591 2.5477 43.2085 2.54785 42.0361C2.54785 40.8637 1.59724 39.9132 0.424805 39.9131C0.279397 39.9131 0.13719 39.9272 0 39.9551V36.4727C0.137253 36.5005 0.279324 36.5156 0.424805 36.5156C1.59724 36.5155 2.54785 35.565 2.54785 34.3926C2.54766 33.2203 1.59712 32.2696 0.424805 32.2695C0.279372 32.2695 0.137212 32.2846 0 32.3125V30.5283C0.137247 30.5562 0.279331 30.5713 0.424805 30.5713C1.59724 30.5712 2.54785 29.6207 2.54785 28.4482C2.54772 27.2759 1.59716 26.3253 0.424805 26.3252C0.279432 26.3252 0.137159 26.3394 0 26.3672V23.7344C0.137266 23.7623 0.279309 23.7783 0.424805 23.7783C1.5971 23.7782 2.54763 22.8275 2.54785 21.6553C2.54785 20.4828 1.59724 19.5323 0.424805 19.5322C0.279387 19.5322 0.137198 19.5464 0 19.5742V15.9746C0.692356 16.0798 1.4013 16.1348 2.12305 16.1348C9.8616 16.1348 16.1348 9.8616 16.1348 2.12305C16.1348 1.40134 16.0808 0.692316 15.9756 0H164.057Z" fill="#AF5028"/>
<rect x="18.6824" y="11.0398" width="139.27" height="67.9365" rx="15.4234" fill="#FAAA47"/>
<line x1="40.0277" y1="11.0398" x2="40.0277" y2="78.9763" stroke="black" stroke-width="1.92793"/>
<line x1="138.535" y1="11.0398" x2="138.535" y2="78.9763" stroke="black" stroke-width="1.92793"/>
<rect x="28.9193" y="29.8834" width="122.056" height="26.0959" rx="6.74775" fill="#E8D2AB" stroke="black" stroke-width="1.92793"/>
<path d="M24.4784 28.8732L25.8584 22.9075L21.2302 18.895L27.3445 18.3643L29.7223 12.7383L32.1001 18.3643L38.2143 18.895L33.5862 22.9075L34.9661 28.8732L29.7223 25.7099L24.4784 28.8732Z" fill="black"/>
<path d="M23.6293 73.8813L25.0093 67.9156L20.3811 63.9031L26.4954 63.3723L28.8732 57.7463L31.2509 63.3723L37.3652 63.9031L32.7371 67.9156L34.117 73.8813L28.8732 70.718L23.6293 73.8813Z" fill="black"/>
<path d="M143.367 28.0241L144.747 22.0584L140.119 18.0459L146.233 17.5152L148.611 11.8892L150.989 17.5152L157.103 18.0459L152.475 22.0584L153.855 28.0241L148.611 24.8608L143.367 28.0241Z" fill="black"/>
<g clip-path="url(#clip0_20_547)">
<path d="M143.921 75.4419L145.487 68.6701L140.234 64.1153L147.174 63.5128L149.873 57.1266L152.572 63.5128L159.513 64.1153L154.259 68.6701L155.826 75.4419L149.873 71.8511L143.921 75.4419Z" fill="black"/>
</g>
<path d="M57.7376 47.8287C56.2801 47.8287 55.1542 47.4585 54.3599 46.7182C53.5733 45.9779 53.18 44.7941 53.18 43.167C53.18 40.0591 54.6915 38.5052 57.7145 38.5052C58.4471 38.5052 59.1257 38.5939 59.7504 38.7713C60.3828 38.9487 60.8532 39.1453 61.1616 39.3612V42.2531H58.3854V41.4203C58.3854 41.1272 58.3199 40.9113 58.1888 40.7725C58.0577 40.6337 57.861 40.5643 57.5988 40.5643C57.3366 40.5643 57.14 40.6337 57.0089 40.7725C56.8778 40.9113 56.8122 41.1272 56.8122 41.4203V44.9137C56.8122 45.2067 56.8778 45.4226 57.0089 45.5615C57.14 45.7003 57.3366 45.7697 57.5988 45.7697C57.861 45.7697 58.0577 45.7003 58.1888 45.5615C58.3199 45.4226 58.3854 45.2067 58.3854 44.9137V43.9767H61.1616V46.9727C60.8455 47.1886 60.375 47.3853 59.7504 47.5626C59.1335 47.74 58.4625 47.8287 57.7376 47.8287ZM61.5975 47.6667V45.7697H62.1759V40.5643H61.5975V38.6672H65.9932V40.5643H65.4148V45.7697H65.9932V47.6667H61.5975ZM73.1179 38.6672H76.912V40.5643H76.3337V47.6667H73.0832L69.6939 42.4498V45.7697H70.2491V47.6667H66.455V45.7697H67.0333V40.5643H66.455V38.6672H70.6309L73.6731 43.3058V40.5643H73.1179V38.6672ZM77.356 47.6667V45.7697H77.9344V40.5643H77.356V38.6672H85.1642V42.1606H82.573V40.5643H81.1733V42.3919H82.1913V43.7106H81.1733V45.7697H82.573V43.942H85.1642V47.6667H77.356ZM98.3245 40.5643H97.7461V45.7697H98.3245V47.6667H93.952V45.7697H94.5072V43.861H92.8878V45.7697H93.443V47.6667H89.0705V45.7697H89.6488V40.5643H89.0705V38.6672H93.443V40.5643H92.8878V42.3225H94.5072V40.5643H93.952V38.6672H98.3245V40.5643ZM107.276 45.7697H107.739V47.6667H103.204V45.7697H103.898L103.713 44.8443H102.14L101.955 45.7697H102.649V47.6667H98.6929V45.7697H99.1556L101.11 38.6672H105.321L107.276 45.7697ZM102.394 43.6181H103.459L102.984 41.3162H102.869L102.394 43.6181ZM108.105 47.6667V45.7697H108.683V40.5643H108.105V38.6672H112.986V40.5643H111.922V45.7697H112.963V44.7055H115.265V47.6667H108.105ZM115.662 47.6667V45.7697H116.241V40.5643H115.662V38.6672H120.544V40.5643H119.48V45.7697H120.521V44.7055H122.823V47.6667H115.662Z" fill="black"/>
<defs>
<clipPath id="clip0_20_547">
<rect width="20.3809" height="20.3809" fill="white" transform="translate(139.27 55.1987)"/>
</clipPath>
</defs>
</svg>
